<?xml version="1.0" encoding="iso-8859-1"?>
<!-- Generator: Adobe Illustrator 19.0.0, SVG Export Plug-In . SVG Version: 6.00 Build 0)  -->
<svg version="1.1" id="Capa_1" xmlns="http://www.w3.org/2000/svg" xmlns:xlink="http://www.w3.org/1999/xlink" x="0px" y="0px"
	 viewBox="0 0 361.742 361.742" style="enable-background:new 0 0 361.742 361.742;" xml:space="preserve">
<g id="XMLID_89_">
	<path id="XMLID_90_" d="M282.179,155.987l75.852-99.244c4.161-5.444,4.878-12.604,1.871-18.688
		c-3.023-6.117-9.298-10.069-15.985-10.069c-2.668,0-5.281,0.601-7.767,1.786L223.278,83.6c-0.315-0.052-0.612-0.202-0.84-0.43
		l-0.437-0.437l-61.808-48.174c-4.851-3.834-10.638-5.861-16.737-5.861c-13.822,0-25.425,10.336-26.991,24.044l-5.294,46.353
		L8.801,192.628l-0.219,0.207c-10.639,10.325-11.497,27.299-1.954,38.644l68.77,81.755c5.407,6.428,13.327,10.114,21.73,10.114
		c7.206,0,14.042-2.689,19.31-7.586l33.388-26.42l0.739-0.646c1.924-1.855,4.886-2.39,7.344-1.303l98.754,43.659
		c4.058,1.794,8.345,2.704,12.742,2.704c3.228,0,6.41-0.501,9.458-1.49c13.021-4.222,25.442-14.812,36.919-31.477
		c10.132-14.713,12.522-33.56,6.394-50.415l-0.109-0.301l-40.478-92.428c-0.118-0.486,0.008-1.002,0.345-1.381L282.179,155.987z
		 M303.481,257.491c3.794,10.717,2.244,22.64-4.171,31.955c-8.797,12.774-18.001,21.002-26.617,23.796
		c-2.515,0.814-5.411,0.638-7.943-0.481l-98.754-43.659c-3.42-1.512-7.049-2.279-10.786-2.279c-6.768,0-13.187,2.52-18.136,7.107
		l-33.391,26.422l-0.739,0.646c-1.572,1.517-3.637,2.352-5.816,2.352c-2.486,0-4.828-1.089-6.425-2.988l-68.77-81.755
		c-2.793-3.321-2.57-8.274,0.49-11.333l102.436-93.592l0.219-0.207c2.3-2.232,4.102-5.002,5.21-8.01l0.415-1.127l5.634-49.326
		c0.473-4.145,3.94-6.313,7.12-6.313c1.574,0,3.032,0.521,4.388,1.593l51.515,40.153l64.302,76.126L303.481,257.491z
		 M268.358,141.135l-34.246-40.544l102.647-48.952L268.358,141.135z"/>
	<circle id="XMLID_102_" cx="217.252" cy="180.434" r="20.57"/>
</g>
<g>
</g>
<g>
</g>
<g>
</g>
<g>
</g>
<g>
</g>
<g>
</g>
<g>
</g>
<g>
</g>
<g>
</g>
<g>
</g>
<g>
</g>
<g>
</g>
<g>
</g>
<g>
</g>
<g>
</g>
</svg>
